<?xml version="1.0" encoding="utf-8"?>
<!-- Generator: Adobe Illustrator 24.2.0, SVG Export Plug-In . SVG Version: 6.00 Build 0)  -->
<svg version="1.1" id="Layer_1" xmlns="http://www.w3.org/2000/svg" xmlns:xlink="http://www.w3.org/1999/xlink" x="0px" y="0px"
	 viewBox="0 0 480 139" style="enable-background:new 0 0 480 139;" xml:space="preserve">
<style type="text/css">
	.st0{fill:none;}
	.st1{enable-background:new    ;}
	.st2{fill:#FFFFFF;}
	.st3{fill:#0B72B9;}
	.st4{fill:#FFBA60;}
	.st5{fill:#B73232;}
</style>
<path d="M448.1-1l-9.6,17.2l-8.4,15L369.9,139H-1V-1H448.1z"/>
<path class="st0" d="M-1,139h479.9v0L-1,139L-1,139z"/>
<g class="st1">
	<path class="st2" d="M97.6,26.6c0,1.8-4.1,5.9-11,5.9c-10,0-13.6-4.7-25.4-4.7c-13,0-22.8,7.3-22.8,16.9c0,4.6,3.8,6,3.8,6.4
		c0,0.2-0.3,0.3-0.8,0.3c-1.8,0-8.4-2.4-8.4-8.2c0-9.7,13-17.3,29.7-17.3c10.8,0,15.8,2.3,25.2,2.3c5.5,0,8.5-2.3,9.2-2.3
		C97.4,26.1,97.6,26.2,97.6,26.6z M73.2,35.5c1-0.9,1.5-1.2,1.5-1.6c0-0.7-2-2.3-3.4-2.3c-2.2,0-7.1,4.7-11.7,11.8
		c-5.4,8.4-9.3,17.8-9.3,21.3c0,1.7,2.1,2.5,2.8,2.5c1,0,0.8-1.5,2.1-4.6C59.3,52.7,65.5,42.8,73.2,35.5z"/>
	<path class="st2" d="M101.1,50c0-0.4-0.3-0.6-0.8-0.6c-2.9,0-14.4,7.8-19.5,15c-0.7,0.9-1.1,1.5-2.1,1.5c-1,0-1.8-0.5-1.8-1.8
		c0-3.2,3.8-13.1,8.9-21.2C89.9,36.3,95,31,99.3,31c1.8,0,3.2,1.1,3.3,1.8c-8.1,3.1-17.5,18.9-21.3,28c6.1-6.6,15.4-13.8,20.7-13.8
		c2.3,0,4,1.4,4,2.8c0,2.9-6.7,6.7-6.7,10.3c0,1.4,1,1.8,2.5,1.8c4.1,0,9-4.7,10.8-6.6c0.5-0.5,0.7-0.6,0.9-0.6s0.5,0.1,0.5,0.3
		s-0.3,0.5-0.5,0.8c-2.5,2.9-8.4,8.3-13.9,8.3c-3.1,0-5.5-1.5-5.5-3.6C93.9,56.2,101.1,51.7,101.1,50z"/>
	<path class="st2" d="M114.4,45.9c1.5,0,4.4,0.7,4.4,2.5c0,1-0.8,2.9-2.9,6.8c5.4-6,8.8-10.8,13.5-10.8c3.5,0,5.1,2.6,5.1,3.2
		c0,0.2-0.2,0.4-0.5,0.4c-0.5,0-1.1-0.5-2.8-0.5c-3.3,0-8.7,2-14.3,9c-4.1,5-4.1,7.6-5.7,7.6c-1.1,0-3.1-1.3-3.1-2.1
		c0-0.8,1.8-3.2,3.7-7.4c1.9-4.2,2.1-6.4,2.1-7.1c0-1.1-0.2-1-0.2-1.3C113.5,46,113.7,45.9,114.4,45.9z"/>
	<path class="st2" d="M147.2,45.5c3.7,0,5,1.1,5,2.7c0,2.8-7,6.9-16,8.4c-0.7,1.3-1.1,2.6-1.1,3.6c0,1.7,1.1,2.5,3.8,2.5
		c6.6,0,14.2-5.4,16.9-7.8c0.5-0.5,0.8-0.5,1-0.5c0.2,0,0.3,0.1,0.3,0.3c0,0.2-0.1,0.4-0.5,0.9c-3.1,3.2-11.6,9-19.2,9
		c-4.8,0-7.6-1.8-7.6-5.6C129.8,52.8,140.5,45.5,147.2,45.5z M148.4,46.8c-3.4,0.1-8.7,4.4-11.5,8.7c7-1.4,12.5-6.2,12.5-7.9
		C149.4,47,149,46.8,148.4,46.8z"/>
	<path class="st2" d="M169.7,45.5c3.7,0,5,1.1,5,2.7c0,2.8-7,6.9-16,8.4c-0.7,1.3-1.1,2.6-1.1,3.6c0,1.7,1.1,2.5,3.8,2.5
		c6.6,0,14.2-5.4,16.9-7.8c0.5-0.5,0.8-0.5,1-0.5c0.2,0,0.3,0.1,0.3,0.3c0,0.2-0.1,0.4-0.5,0.9c-3.1,3.2-11.6,9-19.2,9
		c-4.8,0-7.6-1.8-7.6-5.6C152.2,52.8,163,45.5,169.7,45.5z M170.8,46.8c-3.4,0.1-8.7,4.4-11.5,8.7c7-1.4,12.5-6.2,12.5-7.9
		C171.8,47,171.5,46.8,170.8,46.8z"/>
	<path class="st2" d="M222.7,62.1c9.4,0,11.3-3.8,12-3.8c0.3,0,0.5,0.3,0.5,0.8c0,2.5-4.8,6.6-11.6,6.6c-2.7,0-6.5-0.8-10.6-1.8
		l-1.3-0.3c-3.9,3.6-8.7,6-14.7,6c-6.7,0-10.3-3-10.3-5.5c0-3,4.1-4.7,8.1-4.7c3.8,0,8.4,0.7,13.1,1.4c2.7-2.8,5-6.3,7.1-9.9
		c-5.3-1.3-8.1-4.4-8.1-8.3c0-3.8,3.4-8.6,7.3-8.6c1.7,0,3,0.6,3,1.1c0,0.2-0.2,0.4-0.9,0.8c-3.2,1.6-6.1,4.8-6.1,7.9
		c0,2.6,1.8,4.7,5.7,5.5c6.5-11.1,12-23.3,22.8-23.3c4.9,0,7.8,2.8,7.8,6.7c0,7.6-13,18.4-25.8,18.7c-2.1,3.6-4.4,7.2-7.2,10.2
		C217,62,219.4,62.1,222.7,62.1z M189.5,64.4c0,1.5,1.8,2.8,4.8,2.8c4.8,0,8.7-1.9,12-4.8c-3.5-0.8-7-1.4-9.6-1.4
		C191.6,60.9,189.5,62.9,189.5,64.4z M239.9,28.2c-7.7,0-12.1,10.8-18,21.4c11-1.1,21.2-10.7,21.2-18.1
		C243.1,29.5,241.9,28.2,239.9,28.2z"/>
	<path class="st2" d="M265.2,46.8c-9.3,0-20.4,9.9-20.4,14.3c0,1.1,0.6,1.5,1.3,1.5c2.1,0,7.2-3.5,12.3-8.3c2.5-2.3,2.8-3,3.2-3
		c0.9,0,2.5,1.4,2.5,2.2c0,1.2-3.8,3.8-3.8,6.3c0,1.4,0.9,1.9,2.1,1.9c4.4,0,9.7-4.9,11.6-6.8c0.5-0.5,0.7-0.6,0.9-0.6
		c0.2,0,0.4,0.1,0.4,0.3c0,0.2-0.1,0.4-0.5,0.9c-2.4,2.8-8.2,7.9-13.6,7.9c-2.8,0-4.8-1.5-4.8-3.5c0-0.9,0.2-1.5,0.6-2.3
		c-4.1,3.6-9.3,7.3-13.4,7.3c-2,0-4.3-1-4.3-3.7c0-6.7,13.6-16.1,23.8-16.1c2.3,0,3.6,0.6,4.4,1.4c0.5,0.5,0.1,0.9-0.6,0.6
		C266.3,46.9,265.8,46.8,265.2,46.8z"/>
	<path class="st2" d="M267.2,77.4c0-4.8,9.7-10.5,20.9-15.2c1.5-3,2.7-5.7,3.4-7.1l0.6-1.1c-0.1,0.1-0.2,0.1-0.2,0.1
		c-4.8,4.8-11.8,10-15.6,10c-2.8,0-5.2-1.5-5.2-4.8c0-3.9,7.2-12.8,10.5-12.8c1.2,0,2.9,1.2,2.9,1.8c0,0.4-0.5,0.5-1.6,1.4
		c-5.7,5-7.3,8.4-7.3,10.5c0,1.3,0.6,1.8,1.8,1.8c2.9,0,10.9-6.6,13.3-9.1c5.4-5.5,8.5-8.7,10.7-8.7c1.4,0,2,0.8,2,1
		c0,0.2-0.3,0.5-1.1,1c-1.7,1.1-3.8,2.8-6.1,7.7c-0.6,1.3-1.4,3.3-2.4,5.8c2.8-1.1,5.6-2.1,8.4-3c0.7-0.2,1.1-0.3,1.3-0.3
		c0.5,0,0.8,0.1,0.8,0.3c0,0.3-0.5,0.6-1.3,0.9c-3.2,1.1-6.6,2.3-9.8,3.6c-3.4,8.3-9.3,19.8-19.9,19.8
		C269.7,81.2,267.2,79.8,267.2,77.4z M272,79.6c5.9,0,11.4-8.4,15.2-15.6c-9.7,4.4-17.3,9.5-17.3,13.8C269.9,79,271,79.6,272,79.6z"
		/>
	<path class="st2" d="M321.2,45.5c3.7,0,5,1.1,5,2.7c0,2.8-7,6.9-16,8.4c-0.7,1.3-1.1,2.6-1.1,3.6c0,1.7,1.1,2.5,3.8,2.5
		c6.6,0,14.2-5.4,16.9-7.8c0.5-0.5,0.8-0.5,1-0.5c0.2,0,0.3,0.1,0.3,0.3c0,0.2-0.1,0.4-0.5,0.9c-3.1,3.2-11.6,9-19.2,9
		c-4.8,0-7.6-1.8-7.6-5.6C303.8,52.8,314.5,45.5,321.2,45.5z M322.4,46.8c-3.4,0.1-8.7,4.4-11.5,8.7c7-1.4,12.5-6.2,12.5-7.9
		C323.4,47,323,46.8,322.4,46.8z"/>
	<path class="st2" d="M330.9,45.9c1.5,0,4.4,0.7,4.4,2.5c0,1-0.8,2.9-2.9,6.8c5.4-6,8.8-10.8,13.5-10.8c3.5,0,5.1,2.6,5.1,3.2
		c0,0.2-0.2,0.4-0.5,0.4c-0.5,0-1.1-0.5-2.8-0.5c-3.3,0-8.7,2-14.3,9c-4.1,5-4.1,7.6-5.7,7.6c-1.1,0-3.1-1.3-3.1-2.1
		c0-0.8,1.8-3.2,3.7-7.4c1.9-4.2,2.1-6.4,2.1-7.1c0-1.1-0.2-1-0.2-1.3C330,46,330.2,45.9,330.9,45.9z"/>
</g>
<g class="st1">
	<path class="st2" d="M145.3,74.9c0,1.7-2.9,5.6-7.7,5.6c-7,0-9.6-4.4-17.9-4.4c-9.2,0-16,6.9-16,16c0,4.3,2.6,5.7,2.6,6
		c0,0.2-0.2,0.3-0.6,0.3c-1.3,0-5.9-2.3-5.9-7.7c0-9.2,9.2-16.4,21-16.4c7.6,0,11.1,2.2,17.8,2.2c3.9,0,6-2.2,6.5-2.2
		C145.1,74.4,145.3,74.6,145.3,74.9z M128.1,83.4c0.7-0.9,1-1.1,1-1.5c0-0.6-1.4-2.2-2.4-2.2c-1.6,0-5,4.4-8.3,11.2
		c-3.8,7.9-6.5,16.8-6.5,20.1c0,1.6,1.5,2.3,2,2.3c0.7,0,0.5-1.4,1.5-4.4C118.3,99.7,122.6,90.3,128.1,83.4z"/>
	<path class="st2" d="M143.3,95.7c-0.7-0.4-3-1.9-3-5.6c0-8,11.7-15.7,21.4-15.7c7.8,0,12.6,4.3,12.6,11.4
		c0,9.7-11.3,25.8-22.8,25.8c-5.7,0-9.8-3.9-9.8-9.1C141.8,100.2,142.4,97.9,143.3,95.7z M143.2,92.3c0,1.2,0.3,2.1,0.5,2.5
		c3.7-7.6,11.7-13.5,15.7-13.5c2.4,0,3.8,1.7,3.8,2.4c0,0.2-0.2,0.3-0.4,0.3c-6,0-18.1,10.9-18.1,19.8c0,3.8,2.3,5.5,5.6,5.5
		c9.3,0,20.1-15.7,20.1-25.8c0-4.4-2.5-7.3-7.2-7.3C155.2,76.2,143.2,83.3,143.2,92.3z"/>
	<path class="st2" d="M220.1,88.4c0,11.3-14,24.3-28.9,24.3c-6.3,0-10.4-3.8-10.4-5.1c0-0.2,0.1-0.4,0.3-0.4c0.4,0,2.6,2.5,8.9,2.5
		c13.3,0,26.7-12.9,26.7-24.5c0-5.5-3.8-8.4-11.8-8.4c-11.2,0-23.9,6.9-23.9,16c0,4.6,3.2,4.3,3.2,4.9c0,0.4-0.4,0.4-1.1,0.4
		c-2.5,0-6.2-2.3-6.2-6.4c0-9.7,14.6-17.3,26.9-17.3C213.9,74.4,220.1,80,220.1,88.4z M201.3,84.1c0,2.1-10.1,17.8-11.8,23.5
		c-0.2,0.4-0.3,0.5-0.6,0.5c-0.8,0-1.9-1.2-1.9-2.4c0-3.7,10.5-20.4,10.5-24.3c0-0.4,0.2-0.7,0.5-0.7
		C198.8,80.7,201.3,82.2,201.3,84.1z"/>
	<path class="st2" d="M226.1,95.7c-0.7-0.4-3-1.9-3-5.6c0-8,11.7-15.7,21.4-15.7c7.8,0,12.6,4.3,12.6,11.4
		c0,9.7-11.3,25.8-22.8,25.8c-5.7,0-9.8-3.9-9.8-9.1C224.5,100.2,225.1,97.9,226.1,95.7z M225.9,92.3c0,1.2,0.3,2.1,0.5,2.5
		c3.7-7.6,11.7-13.5,15.7-13.5c2.4,0,3.8,1.7,3.8,2.4c0,0.2-0.2,0.3-0.4,0.3c-6,0-18.1,10.9-18.1,19.8c0,3.8,2.3,5.5,5.6,5.5
		c9.3,0,20.1-15.7,20.1-25.8c0-4.4-2.5-7.3-7.2-7.3C237.9,76.2,225.9,83.3,225.9,92.3z"/>
</g>
<path class="st0" d="M382.4,116.4l47.6-85.2l8.4-15 M369.8,139L369.8,139l-7.8,14"/>
<path class="st3" d="M438.8,15.8l-56.4,100.9c-12.5-10.8-20.5-26.8-20.5-44.7c0-32.6,26.4-59,59-59C427.1,13,433.1,14,438.8,15.8z"
	/>
<path d="M479.9,72c0,32.6-26.4,59-59,59c-14.7,0-28.2-5.4-38.5-14.3l56.4-100.9C462.6,23.3,479.9,45.6,479.9,72z"/>
<path class="st0" d="M457-17l-8.9,16l-9.6,17.2l-8.4,15L369.9,139l0,0l-8.9,16"/>
<g>
	<g class="st1">
		<path class="st4" d="M414.1,67.9c11.8,0,14.1-4.7,15.1-4.7c0.4,0,0.7,0.4,0.7,1c0,3.1-6,8.2-14.6,8.2c-3.4,0-8.2-1-13.4-2.3
			l-1.6-0.4c-4.9,4.5-10.9,7.5-18.5,7.5c-8.5,0-12.9-3.7-12.9-6.9c0-3.7,5.2-5.9,10.2-5.9c4.8,0,10.6,0.9,16.5,1.8
			c3.4-3.5,6.3-7.9,9-12.4c-6.6-1.6-10.2-5.5-10.2-10.4c0-4.8,4.2-10.8,9.1-10.8c2.1,0,3.8,0.8,3.8,1.4c0,0.2-0.2,0.5-1.2,1
			c-4,2-7.6,6-7.6,10c0,3.3,2.3,5.9,7.2,6.9c8.2-14,15.1-29.3,28.7-29.3c6.2,0,9.8,3.5,9.8,8.4c0,9.5-16.4,23.1-32.4,23.5
			c-2.7,4.6-5.6,9.1-9,12.8C406.9,67.8,410,67.9,414.1,67.9z M372.4,70.8c0,1.9,2.2,3.5,6,3.5c6.1,0,11-2.4,15.1-6.1
			c-4.4-1-8.9-1.8-12-1.8C375,66.4,372.4,68.9,372.4,70.8z M435.7,25.4c-9.6,0-15.2,13.6-22.6,26.9c13.8-1.4,26.7-13.5,26.7-22.7
			C439.7,26.9,438.2,25.4,435.7,25.4z"/>
	</g>
	<g class="st1">
		<path class="st5" d="M422.5,81.8c11.8,0,14.1-4.7,15.1-4.7c0.4,0,0.7,0.4,0.7,1c0,3.1-6,8.2-14.6,8.2c-3.4,0-8.2-1-13.4-2.3
			l-1.6-0.4c-4.9,4.5-10.9,7.5-18.5,7.5c-8.5,0-12.9-3.7-12.9-6.9c0-3.7,5.2-5.9,10.2-5.9c4.8,0,10.6,0.9,16.5,1.8
			c3.4-3.5,6.3-7.9,9-12.4c-6.6-1.6-10.2-5.5-10.2-10.4c0-4.8,4.2-10.8,9.1-10.8c2.1,0,3.8,0.8,3.8,1.4c0,0.2-0.2,0.5-1.2,1
			c-4,2-7.6,6-7.6,10c0,3.3,2.3,5.9,7.2,6.9c8.2-14,15.1-29.3,28.7-29.3c6.2,0,9.8,3.5,9.8,8.4c0,9.5-16.4,23.1-32.4,23.5
			c-2.7,4.6-5.6,9.1-9,12.8C415.3,81.7,418.4,81.8,422.5,81.8z M380.9,84.7c0,1.9,2.2,3.5,6,3.5c6.1,0,11-2.4,15.1-6.1
			c-4.4-1-8.9-1.8-12-1.8C383.5,80.3,380.9,82.8,380.9,84.7z M444.1,39.3c-9.6,0-15.2,13.6-22.6,26.9c13.8-1.4,26.7-13.5,26.7-22.7
			C448.1,40.8,446.6,39.3,444.1,39.3z"/>
	</g>
	<g class="st1">
		<path class="st4" d="M436.1,96.8c11.8,0,14.1-4.7,15.1-4.7c0.4,0,0.7,0.4,0.7,1c0,3.1-6,8.2-14.6,8.2c-3.4,0-8.2-1-13.4-2.3
			l-1.6-0.4c-4.9,4.5-10.9,7.5-18.5,7.5c-8.5,0-12.9-3.7-12.9-6.9c0-3.7,5.2-5.9,10.2-5.9c4.8,0,10.6,0.9,16.5,1.8
			c3.4-3.5,6.3-7.9,9-12.4c-6.6-1.6-10.2-5.5-10.2-10.4c0-4.8,4.2-10.8,9.1-10.8c2.1,0,3.8,0.8,3.8,1.4c0,0.2-0.2,0.5-1.2,1
			c-4,2-7.6,6-7.6,10c0,3.3,2.3,5.9,7.2,6.9c8.2-14,15.1-29.3,28.7-29.3c6.2,0,9.8,3.5,9.8,8.4c0,9.5-16.4,23.1-32.4,23.5
			c-2.7,4.6-5.6,9.1-9,12.8C428.9,96.7,431.9,96.8,436.1,96.8z M394.4,99.7c0,1.9,2.2,3.5,6,3.5c6.1,0,11-2.4,15.1-6.1
			c-4.4-1-8.9-1.8-12-1.8C397,95.3,394.4,97.8,394.4,99.7z M457.6,54.3c-9.6,0-15.2,13.6-22.6,26.9c13.8-1.4,26.7-13.5,26.7-22.7
			C461.7,55.8,460.1,54.3,457.6,54.3z"/>
	</g>
</g>
</svg>
